<?xml version="1.0" encoding="UTF-8"?>
<svg xmlns="http://www.w3.org/2000/svg" version="1.1" viewBox="0 0 595.28 841.89">
  <defs>
    <style>
      .cls-1 {
        fill: #1d1d1b;
      }

      .cls-2 {
        fill: none;
        stroke: #1d1d1b;
        stroke-miterlimit: 10;
        stroke-width: 2px;
      }
    </style>
  </defs>
  <!-- Generator: Adobe Illustrator 28.7.1, SVG Export Plug-In . SVG Version: 1.2.0 Build 142)  -->
  <g>
    <g id="Calque_1">
      <rect class="cls-2" x="19.98" y="136.53" width="555.32" height="512.13"/>
      <g>
        <path class="cls-1" d="M109.68,535.69h-38.2V217.49h37.4l112.6,211.8,12.2,31.6h1l-1-31.6v-211.8h38.2v318.2h-38.2l-109.4-208.4-15.4-33.4.8,33v208.8Z"/>
        <path class="cls-1" d="M423.68,545.29c-36.13,0-63.73-15.2-82.8-45.6-19.07-30.4-28.6-71.47-28.6-123.2s9.53-92.43,28.6-122.9c19.07-30.47,46.67-45.7,82.8-45.7s63.7,15.23,82.7,45.7c19,30.47,28.5,71.43,28.5,122.9s-9.5,92.8-28.5,123.2c-19,30.4-46.57,45.6-82.7,45.6ZM423.68,513.29c19.87,0,36.47-11.3,49.8-33.9,13.33-22.6,20-56.9,20-102.9s-6.67-80.13-20-102.8c-13.33-22.67-29.93-34-49.8-34s-36.67,11.33-50,34c-13.33,22.67-20,56.93-20,102.8s6.67,80.3,20,102.9c13.33,22.6,30,33.9,50,33.9Z"/>
      </g>
    </g>
  </g>
</svg>