<?xml version="1.0" encoding="UTF-8"?>
<svg id="Calque_1" xmlns="http://www.w3.org/2000/svg" viewBox="0 0 559.43 514.13">
  <defs>
    <style>
      .cls-1 {
        fill: none;
        stroke: #1d1d1b;
        stroke-miterlimit: 10;
        stroke-width: 2px;
      }
    </style>
  </defs>
  <g id="Calque_1-2" data-name="Calque_1">
    <rect class="cls-1" x="3.11" y="1" width="555.32" height="512.13"/>
  </g>
  <g>
    <path d="M80.94,382.81v-108.68L0,126.69h37.62l36.1,70.68c9.88,19.38,17.48,34.96,25.46,52.82h.76c7.22-16.72,15.96-33.44,25.84-52.82l36.86-70.68h37.62l-85.88,147.06v109.06h-33.44Z"/>
    <path d="M359.48,262.73h-99.56v92.34h110.96v27.74h-144.02V126.69h138.32v27.74h-105.26v80.94h99.56v27.36Z"/>
    <path d="M409.26,342.53c14.82,9.12,36.48,16.72,59.28,16.72,33.82,0,53.58-17.86,53.58-43.7,0-23.94-13.68-37.62-48.26-50.92-41.8-14.82-67.64-36.48-67.64-72.58,0-39.9,33.06-69.54,82.84-69.54,26.22,0,45.22,6.08,56.62,12.54l-9.12,26.98c-8.36-4.56-25.46-12.16-48.64-12.16-34.96,0-48.26,20.9-48.26,38.38,0,23.94,15.58,35.72,50.92,49.4,43.32,16.72,65.36,37.62,65.36,75.24,0,39.52-29.26,73.72-89.68,73.72-24.7,0-51.68-7.22-65.36-16.34l8.36-27.74Z"/>
  </g>
</svg>